<svg xmlns="http://www.w3.org/2000/svg" xmlns:xlink="http://www.w3.org/1999/xlink" xmlns:lucid="lucid" width="2166.09" height="3061"><g transform="translate(244.09271533897834 40.5)" lucid:page-tab-id=".Q4MUjXso07N"><path d="M440-12a8 8 0 0 1 8-8h1204a8 8 0 0 1 8 8v3004a8 8 0 0 1-8 8H448a8 8 0 0 1-8-8z" stroke="#000" stroke-opacity="0" fill="#edf5ff"/><use xlink:href="#a" transform="matrix(1,0,0,1,448,-12) translate(558.9197530864197 24.888888888888893)"/><path d="M-157.23 849.75c0 10.9-8.84 19.75-19.75 19.75-10.9 0-19.75-8.84-19.75-19.75 0-10.9 8.84-19.75 19.75-19.75 10.9 0 19.75 8.84 19.75 19.75z" stroke="#333" stroke-width="4" fill="#fff"/><path d="M-176.98 869.5v49.3a19.48 19.48 0 0 0 3.37 10.96l39.64 58.24m-43.02-63.2L-220 988m0-98.75h86.04" stroke="#333" stroke-width="4" fill="none"/><path d="M-220 836a6 6 0 0 1 6-6h74.04a6 6 0 0 1 6 6v168a6 6 0 0 1-6 6H-214a6 6 0 0 1-6-6z" fill="none"/><use xlink:href="#b" transform="matrix(1,0,0,1,-300,988) translate(99.870987654321 17.95555555555555)"/><path d="M620 60c0 33.14-35.82 60-80 60s-80-26.86-80-60 35.82-60 80-60 80 26.86 80 60z" stroke="#333" fill="#fff"/><use xlink:href="#c" transform="matrix(1,0,0,1,484,24) translate(25.525 39.6)"/><use xlink:href="#d" transform="matrix(1,0,0,1,484,24) translate(66.475 39.6)"/><path d="M600 360c0 33.14-35.82 60-80 60s-80-26.86-80-60 35.82-60 80-60 80 26.86 80 60z" stroke="#333" fill="#fff"/><use xlink:href="#e" transform="matrix(1,0,0,1,464,324) translate(34.025 39.6)"/><path d="M-174.44 920h335.2a12 12 0 0 0 12-12V372a12 12 0 0 1 12-12h238.36M-174.42 920h-3.52" stroke="#333" fill="none"/><path d="M437.88 360l-14.26 4.63v-9.26z" stroke="#333" fill="#333"/><path d="M-175.96 424.2V72a12 12 0 0 1 12-12h607.08M-175.96 424.2v3.5" stroke="#333" fill="none"/><path d="M457.88 60l-14.26 4.64v-9.27z" stroke="#333" fill="#333"/><path d="M600 540c0 33.14-35.82 60-80 60s-80-26.86-80-60 35.82-60 80-60 80 26.86 80 60z" stroke="#333" fill="#fff"/><use xlink:href="#f" transform="matrix(1,0,0,1,464,504) translate(26 39.6)"/><use xlink:href="#g" transform="matrix(1,0,0,1,464,504) translate(61 39.6)"/><path d="M-133.46 920h274.23a12 12 0 0 0 12-12V547.5a7.5 7.5 0 0 1 7.5-7.5h7.5c0-2.76 2.24-5 5-5s5 2.24 5 5h245.35" stroke="#333" fill="none"/><path d="M-133.45 920.48h-3.5v-.96h3.5z" stroke="#333" stroke-width=".05" fill="#333"/><path d="M437.88 540l-14.26 4.63v-9.26z" stroke="#333" fill="#333"/><path d="M-133.46 920h274.23a12 12 0 0 0 12-12V747.5a7.5 7.5 0 0 1 7.5-7.5h7.5c0-2.76 2.24-5 5-5s5 2.24 5 5h245.35" stroke="#333" fill="none"/><path d="M-133.45 920.48h-3.5v-.96h3.5z" stroke="#333" stroke-width=".05" fill="#333"/><path d="M437.88 740l-14.26 4.63v-9.26z" stroke="#333" fill="#333"/><path d="M600 920c0 33.14-35.82 60-80 60s-80-26.86-80-60 35.82-60 80-60 80 26.86 80 60z" stroke="#333" fill="#fff"/><use xlink:href="#h" transform="matrix(1,0,0,1,464,884) translate(15.049999999999997 28.799999999999997)"/><use xlink:href="#i" transform="matrix(1,0,0,1,464,884) translate(53 28.799999999999997)"/><use xlink:href="#j" transform="matrix(1,0,0,1,464,884) translate(22.549999999999997 50.4)"/><path d="M-133.46 920h556.58" stroke="#333" fill="none"/><path d="M-133.45 920.48h-3.5v-.96h3.5z" stroke="#333" stroke-width=".05" fill="#333"/><path d="M437.88 920l-14.26 4.63v-9.26z" stroke="#333" fill="#333"/><path d="M600 1860c0 33.14-35.82 60-80 60s-80-26.86-80-60 35.82-60 80-60 80 26.86 80 60z" stroke="#333" fill="#fff"/><use xlink:href="#k" transform="matrix(1,0,0,1,464,1824) translate(30.049999999999997 18)"/><use xlink:href="#l" transform="matrix(1,0,0,1,464,1824) translate(19.525 39.6)"/><use xlink:href="#j" transform="matrix(1,0,0,1,464,1824) translate(22.549999999999997 61.2)"/><path d="M-133.46 920h274.23a12 12 0 0 1 12 12v376a12 12 0 0 0 12 12h258.35" stroke="#333" fill="none"/><path d="M-133.45 920.48h-3.5v-.96h3.5z" stroke="#333" stroke-width=".05" fill="#333"/><path d="M437.88 1320l-14.26 4.63v-9.27z" stroke="#333" fill="#333"/><path d="M-133.46 920h47.5a12 12 0 0 1 12 12v556a12 12 0 0 0 12 12h485.08" stroke="#333" fill="none"/><path d="M-133.45 920.48h-3.5v-.96h3.5z" stroke="#333" stroke-width=".05" fill="#333"/><path d="M437.88 1500l-14.26 4.63v-9.27z" stroke="#333" fill="#333"/><path d="M600 2040c0 33.14-35.82 60-80 60s-80-26.86-80-60 35.82-60 80-60 80 26.86 80 60z" stroke="#333" fill="#fff"/><use xlink:href="#m" transform="matrix(1,0,0,1,464,2004) translate(35 28.799999999999997)"/><use xlink:href="#n" transform="matrix(1,0,0,1,464,2004) translate(19.525 50.4)"/><path d="M600 2220c0 33.14-35.82 60-80 60s-80-26.86-80-60 35.82-60 80-60 80 26.86 80 60z" stroke="#333" fill="#fff"/><use xlink:href="#o" transform="matrix(1,0,0,1,464,2184) translate(23.549999999999997 28.799999999999997)"/><use xlink:href="#n" transform="matrix(1,0,0,1,464,2184) translate(19.525 50.4)"/><path d="M600 2400c0 33.14-35.82 60-80 60s-80-26.86-80-60 35.82-60 80-60 80 26.86 80 60z" stroke="#333" fill="#fff"/><use xlink:href="#p" transform="matrix(1,0,0,1,464,2364) translate(36.724999999999994 18)"/><use xlink:href="#l" transform="matrix(1,0,0,1,464,2364) translate(19.525 39.6)"/><use xlink:href="#q" transform="matrix(1,0,0,1,464,2364) translate(28.074999999999996 61.2)"/><path d="M-174.44 920h88.48a12 12 0 0 1 12 12v736a12 12 0 0 0 12 12h485.08M-174.42 920h-3.52" stroke="#333" fill="none"/><path d="M437.88 1680l-14.26 4.63v-9.27z" stroke="#333" fill="#333"/><path d="M-133.46 920h47.5a12 12 0 0 1 12 12v916a12 12 0 0 0 12 12h485.08" stroke="#333" fill="none"/><path d="M-133.45 920.48h-3.5v-.96h3.5z" stroke="#333" stroke-width=".05" fill="#333"/><path d="M437.88 1860l-14.26 4.63v-9.27z" stroke="#333" fill="#333"/><path d="M-174.44 920h335.2a12 12 0 0 1 12 12v383c-2.75 0-5 2.24-5 5s2.25 5 5 5v170c-2.75 0-5 2.24-5 5s2.25 5 5 5v170c-2.75 0-5 2.24-5 5s2.25 5 5 5v170c-2.75 0-5 2.24-5 5s2.25 5 5 5v163a12 12 0 0 0 12 12h238.36M-174.42 920h-3.52" stroke="#333" fill="none"/><path d="M437.88 2040l-14.26 4.63v-9.27z" stroke="#333" fill="#333"/><path d="M-176.98 1010.5v8.5a12 12 0 0 0 12 12h79.02a12 12 0 0 1 12 12v1165a12 12 0 0 0 12 12h485.08" stroke="#333" fill="none"/><path d="M-176.5 1010.5h-.96v-3.5h.95z" stroke="#333" stroke-width=".05" fill="#333"/><path d="M437.88 2220l-14.26 4.64v-9.28z" stroke="#333" fill="#333"/><path d="M-176.98 1010.5v8.5a12 12 0 0 0 12 12h79.02a12 12 0 0 1 12 12v1345a12 12 0 0 0 12 12h485.08" stroke="#333" fill="none"/><path d="M-176.5 1010.5h-.96v-3.5h.95z" stroke="#333" stroke-width=".05" fill="#333"/><path d="M437.88 2400l-14.26 4.64v-9.28z" stroke="#333" fill="#333"/><path d="M-133.46 920h47.5a12 12 0 0 1 12 12v1636a12 12 0 0 0 12 12h485.08" stroke="#333" fill="none"/><path d="M-133.45 920.48h-3.5v-.96h3.5z" stroke="#333" stroke-width=".05" fill="#333"/><path d="M437.88 2580l-14.26 4.64v-9.28z" stroke="#333" fill="#333"/><path d="M-154.2 359.75c0 10.9-8.86 19.75-19.76 19.75-10.9 0-19.75-8.84-19.75-19.75 0-10.9 8.83-19.75 19.74-19.75 10.9 0 19.75 8.84 19.75 19.75z" stroke="#333" stroke-width="4" fill="#fff"/><path d="M-173.96 379.5v49.3a20.7 20.7 0 0 0 3.2 11.07l36.8 58.13m-40-63.2l-40 63.2m0-98.75h80" stroke="#333" stroke-width="4" fill="none"/><path d="M-213.96 346a6 6 0 0 1 6-6h68a6 6 0 0 1 6 6v168a6 6 0 0 1-6 6h-68a6 6 0 0 1-6-6z" fill="none"/><use xlink:href="#r" transform="matrix(1,0,0,1,-293.96432027724995,498) translate(70.87160493827162 17.955555555555552)"/><use xlink:href="#s" transform="matrix(1,0,0,1,-293.96432027724995,498) translate(121.87037037037037 17.955555555555552)"/><path d="M1879.75 729.75c0 10.9-8.84 19.75-19.75 19.75-10.9 0-19.75-8.84-19.75-19.75 0-10.9 8.84-19.75 19.75-19.75 10.9 0 19.75 8.84 19.75 19.75z" stroke="#333" stroke-width="4" fill="#fff"/><path d="M1860 749.5v49.3a20.7 20.7 0 0 0 3.2 11.07L1900 868m-40-63.2l-40 63.2m0-98.75h80" stroke="#333" stroke-width="4" fill="none"/><path d="M1820 716a6 6 0 0 1 6-6h68a6 6 0 0 1 6 6v168a6 6 0 0 1-6 6h-68a6 6 0 0 1-6-6z" fill="none"/><use xlink:href="#t" transform="matrix(1,0,0,1,1740,868) translate(82.62376543209878 17.955555555555552)"/><path d="M1819.5 800h-257.25a12 12 0 0 0-12 12v216a12 12 0 0 1-12 12h-241.37" stroke="#333" fill="none"/><path d="M1823 800.48h-3.5v-.96h3.5z" stroke="#333" stroke-width=".05" fill="#333"/><path d="M1282.12 1040l14.26-4.63v9.27z" stroke="#333" fill="#333"/><path d="M600 2580c0 33.14-35.82 60-80 60s-80-26.86-80-60 35.82-60 80-60 80 26.86 80 60z" stroke="#333" fill="#fff"/><use xlink:href="#p" transform="matrix(1,0,0,1,464,2544) translate(36.724999999999994 18)"/><use xlink:href="#l" transform="matrix(1,0,0,1,464,2544) translate(19.525 39.6)"/><use xlink:href="#j" transform="matrix(1,0,0,1,464,2544) translate(22.549999999999997 61.2)"/><path d="M-133.46 920h274.23a12 12 0 0 1 12 12v180.5a7.5 7.5 0 0 0 7.5 7.5h7.5c0-2.76 2.24-5 5-5s5 2.24 5 5h245.35" stroke="#333" fill="none"/><path d="M-133.45 920.48h-3.5v-.96h3.5z" stroke="#333" stroke-width=".05" fill="#333"/><path d="M437.88 1120l-14.26 4.63v-9.27z" stroke="#333" fill="#333"/><path d="M1020 740c0 33.14-35.82 60-80 60s-80-26.86-80-60 35.82-60 80-60 80 26.86 80 60z" stroke="#333" fill="#fff"/><use xlink:href="#u" transform="matrix(1,0,0,1,884,704) translate(9.049999999999997 18)"/><use xlink:href="#i" transform="matrix(1,0,0,1,884,704) translate(59 18)"/><use xlink:href="#v" transform="matrix(1,0,0,1,884,704) translate(22.549999999999997 39.6)"/><use xlink:href="#w" transform="matrix(1,0,0,1,884,704) translate(32.05 61.2)"/><path d="M668.34 740.48h-51.46v-.96h51.46zm190.66 0h-67.34v-.96H859z" stroke="#333" stroke-width=".05" fill="#333"/><path d="M859.5 740v.4l-.5.08v-.96h.5z" fill="#333"/><path stroke="#333" stroke-width=".05" fill="#333"/><path d="M616.38 744.63L602.12 740l14.26-4.63z" fill="#333"/><path d="M616.86 745.3l-16.28-5.3 16.28-5.3zm-13.2-5.3l12.25 3.98v-7.96z" stroke="#333" stroke-width=".05" fill="#333"/><use xlink:href="#x" transform="matrix(1,0,0,1,668.3401234567901,726.5333333333333) translate(0.005000000000002558 17.955555555555552)"/><path d="M176 635.06l1.96 2.67.2 1.3h749.86l1.93.15 1.9.45 1.8.75 1.68 1.03 1.5 1.28 1.26 1.5 1.02 1.66.75 1.8.45 1.9.15 1.94v11.64h-.95v-11.6l-.14-1.82-.42-1.76-.7-1.67-.94-1.54-1.17-1.38-1.38-1.17-1.54-.95-1.67-.7-1.76-.4-1.82-.15H177.36l-.3-1.87-1.63-2.23-2.7-.88-1.35.2-2.24 1.64-1.03 3.13h-10.74l-.3-1.86-1.63-2.23-2.7-.88-1.35.2-2.24 1.64-1.03 3.13H-81.94l-1.82.15-1.76.42-1.67.7-1.54.94-1.37 1.17-1.2 1.38-.93 1.54-.7 1.67-.42 1.76-.14 1.82v256.5l-.14 1.93-.46 1.9-.75 1.8-1.02 1.68-1.27 1.5-1.5 1.26-1.66 1.02-1.8.75-1.9.45-1.95.15h-27.5v-.95H-106l1.82-.14 1.76-.42 1.67-.7 1.54-.94 1.38-1.17 1.18-1.38.94-1.54.7-1.67.42-1.76.14-1.82v-256.5l.15-1.93.47-1.9.75-1.8 1.02-1.68 1.27-1.5 1.5-1.26 1.67-1.02 1.8-.75 1.9-.45 1.95-.15h229.4l.9-2.78 2.68-1.95 1.8-.3 3.2 1.06 1.96 2.67.2 1.3h9.26l.9-2.78 2.68-1.95 1.8-.3z" stroke="#333" stroke-width=".05" fill="#333"/><path d="M-133.45 920.48h-3.5v-.96h3.5z" fill="#333"/><path stroke="#333" stroke-width=".05" fill="#333"/><path d="M940 677.88l-4.63-14.26h9.26z" fill="#333"/><path d="M940 679.42l-5.3-16.28h10.6zm-3.98-15.33l3.98 12.25 3.98-12.26z" stroke="#333" stroke-width=".05" fill="#333"/><path d="M600 740c0 33.14-35.82 60-80 60s-80-26.86-80-60 35.82-60 80-60 80 26.86 80 60z" stroke="#333" fill="#fff"/><use xlink:href="#y" transform="matrix(1,0,0,1,464,704) translate(4.574999999999996 28.799999999999997)"/><use xlink:href="#i" transform="matrix(1,0,0,1,464,704) translate(63.475 28.799999999999997)"/><use xlink:href="#j" transform="matrix(1,0,0,1,464,704) translate(22.549999999999997 50.4)"/><path d="M1520 120c0 33.14-35.82 60-80 60s-80-26.86-80-60 35.82-60 80-60 80 26.86 80 60z" stroke="#333" fill="#fff"/><use xlink:href="#m" transform="matrix(1,0,0,1,1384,84) translate(35 18)"/><use xlink:href="#z" transform="matrix(1,0,0,1,1384,84) translate(5.124999999999993 39.6)"/><use xlink:href="#A" transform="matrix(1,0,0,1,1384,84) translate(33.574999999999996 61.2)"/><path d="M979.95 59.68l1.9.45 1.8.75 1.68 1.03 1.5 1.28 1.26 1.5 1.02 1.66.75 1.8.45 1.9.15 1.94v36l.15 1.82.42 1.76.7 1.67.94 1.54 1.17 1.38 1.38 1.17 1.54.95 1.67.7 1.76.4 1.82.16h82.03v.94h-82.07l-1.93-.15-1.9-.45-1.8-.75-1.68-1.03-1.5-1.28-1.26-1.5-1.02-1.66-.75-1.8-.45-1.9-.15-1.94v-36l-.15-1.82-.42-1.76-.7-1.67-.94-1.54-1.17-1.38-1.38-1.17-1.54-.95-1.67-.7-1.76-.4-1.82-.16h-341.1v-.95h341.14zM1359 119.53v.94h-151.63v-.94z" stroke="#333" stroke-width=".05" fill="#333"/><path d="M1359.5 120v.4l-.5.07v-.94h.52z" fill="#333"/><path stroke="#333" stroke-width=".05" fill="#333"/><path d="M636.38 64.64L622.12 60l14.26-4.63z" fill="#333"/><path d="M636.86 65.3L620.58 60l16.28-5.3zm-13.2-5.3l12.25 3.98v-7.96z" stroke="#333" stroke-width=".05" fill="#333"/><use xlink:href="#x" transform="matrix(1,0,0,1,1084.0466246926471,106.53333333333333) translate(0.005000000000002558 17.955555555555552)"/><path d="M1819.5 800H1592a12 12 0 0 1-12-12V502.25a12 12 0 0 0-12-12h-116a12 12 0 0 1-12-12V196.88" stroke="#333" fill="none"/><path d="M1823 800.48h-3.5v-.96h3.5z" stroke="#333" stroke-width=".05" fill="#333"/><path d="M1440 182.12l4.63 14.26h-9.27z" stroke="#333" fill="#333"/><path d="M1280 1040c0 33.14-35.82 60-80 60s-80-26.86-80-60 35.82-60 80-60 80 26.86 80 60z" stroke="#333" fill="#fff"/><use xlink:href="#m" transform="matrix(1,0,0,1,1144,1004) translate(35 28.799999999999997)"/><use xlink:href="#B" transform="matrix(1,0,0,1,1144,1004) translate(11.599999999999994 50.4)"/><path d="M1220 1600c0 33.14-35.82 60-80 60s-80-26.86-80-60 35.82-60 80-60 80 26.86 80 60z" stroke="#333" fill="#fff"/><use xlink:href="#C" transform="matrix(1,0,0,1,1084,1564) translate(33.525 14.4)"/><use xlink:href="#l" transform="matrix(1,0,0,1,1084,1564) translate(19.525 36)"/><use xlink:href="#v" transform="matrix(1,0,0,1,1084,1564) translate(22.549999999999997 57.6)"/><use xlink:href="#w" transform="matrix(1,0,0,1,1084,1564) translate(32.05 79.20000000000002)"/><path d="M818.34 1680.47H616.88v-.94h201.46zm322.13-12.45l-.15 1.93-.45 1.9-.75 1.8-1.03 1.68-1.28 1.5-1.5 1.26-1.66 1.02-1.8.75-1.9.45-1.94.15H941.66v-.94h186.32l1.82-.15 1.76-.42 1.67-.7 1.54-.94 1.38-1.17 1.17-1.38.95-1.54.7-1.67.4-1.76.16-1.82V1661h.94z" stroke="#333" stroke-width=".05" fill="#333"/><path d="M1140 1660.5h.47v.5h-.94v-.52z" fill="#333"/><path stroke="#333" stroke-width=".05" fill="#333"/><path d="M616.38 1684.63l-14.26-4.63 14.26-4.63z" fill="#333"/><path d="M616.86 1685.3l-16.28-5.3 16.28-5.3zm-13.2-5.3l12.25 3.98v-7.96z" stroke="#333" stroke-width=".05" fill="#333"/><use xlink:href="#x" transform="matrix(1,0,0,1,818.3401234632889,1666.5333333333333) translate(0.005000000000002558 17.955555555555552)"/><path d="M-.05 919.68l1.9.45 1.8.75 1.68 1.03 1.5 1.28 1.26 1.5 1.02 1.66.75 1.8.45 1.9.15 1.94v563.37l-3.13 1.02-1.63 2.24-.2 1.36.87 2.7 2.24 1.63 1.88.3v83.38l.14 1.82.42 1.76.7 1.67.94 1.54 1.17 1.38 1.38 1.17 1.54.95 1.67.7 1.76.4 1.82.16h145.4l.9-2.78 2.68-1.95 1.8-.3 3.2 1.06 1.96 2.67.2 1.3h864.96v.94H177.36l-.3-1.86-1.63-2.23-2.7-.88-1.35.2-2.24 1.64-1.03 3.13H22l-1.93-.15-1.9-.45-1.8-.75-1.68-1.03-1.5-1.28-1.26-1.5-1.02-1.66-.75-1.8-.45-1.9-.15-1.94v-82.62l-1.3-.2-2.67-1.95-1.05-3.2.3-1.82 1.95-2.67 2.78-.9V932l-.15-1.82-.42-1.76-.7-1.67-.94-1.54-1.17-1.38-1.38-1.17-1.54-.95-1.67-.7-1.76-.4-1.82-.15h-131.44v-.96H-1.98z" stroke="#333" stroke-width=".05" fill="#333"/><path d="M-133.45 920.48h-3.5v-.96h3.5z" fill="#333"/><path stroke="#333" stroke-width=".05" fill="#333"/><path d="M1057.88 1600l-14.26 4.63v-9.27z" fill="#333"/><path d="M1059.42 1600l-16.28 5.3v-10.6zm-15.33 3.98l12.25-3.98-12.26-3.98z" stroke="#333" stroke-width=".05" fill="#333"/><path d="M1300 240c0 33.14-35.82 60-80 60s-80-26.86-80-60 35.82-60 80-60 80 26.86 80 60z" stroke="#333" fill="#fff"/><use xlink:href="#D" transform="matrix(1,0,0,1,1164,204) translate(9.074999999999996 28.799999999999997)"/><use xlink:href="#E" transform="matrix(1,0,0,1,1164,204) translate(65.025 28.799999999999997)"/><use xlink:href="#F" transform="matrix(1,0,0,1,1164,204) translate(10.599999999999994 50.4)"/><path d="M870.48 348.02l-.16 1.93-.45 1.9-.75 1.8-1.03 1.68-1.28 1.5-1.5 1.26-1.66 1.02-1.8.75-1.9.45-1.94.16H616.88v-.96h241.1l1.82-.14 1.76-.42 1.67-.7 1.54-.94 1.38-1.17 1.17-1.38.95-1.54.7-1.67.4-1.76.15-1.82v-34.5h.96zM1139 240.48H882.02l-1.82.14-1.76.42-1.67.7-1.54.94-1.38 1.17-1.17 1.38-.95 1.54-.7 1.67-.4 1.76-.15 1.82v34.5h-.96V252l.16-1.93.45-1.9.75-1.8 1.03-1.68 1.28-1.5 1.5-1.26 1.66-1.02 1.8-.75 1.9-.45 1.94-.16H1139z" stroke="#333" stroke-width=".05" fill="#333"/><path d="M1139.5 240v.4l-.5.07v-.94h.52z" fill="#333"/><path stroke="#333" stroke-width=".05" fill="#333"/><path d="M616.38 364.63L602.12 360l14.26-4.63z" fill="#333"/><path d="M616.86 365.3l-16.28-5.3 16.28-5.3zm-13.2-5.3l12.25 3.98v-7.96z" stroke="#333" stroke-width=".05" fill="#333"/><use xlink:href="#x" transform="matrix(1,0,0,1,808.3401234567901,286.53333333333336) translate(0.005000000000002558 17.955555555555552)"/><path d="M1819.5 800h-467a12 12 0 0 1-12-12V252a12 12 0 0 0-12-12h-11.62" stroke="#333" fill="none"/><path d="M1823 800.48h-3.5v-.96h3.5z" stroke="#333" stroke-width=".05" fill="#333"/><path d="M1302.12 240l14.26-4.63v9.26z" stroke="#333" fill="#333"/><path d="M600 1120c0 33.14-35.82 60-80 60s-80-26.86-80-60 35.82-60 80-60 80 26.86 80 60z" stroke="#333" fill="#fff"/><use xlink:href="#y" transform="matrix(1,0,0,1,464,1084) translate(8.099999999999994 39.6)"/><use xlink:href="#G" transform="matrix(1,0,0,1,464,1084) translate(67 39.6)"/><path d="M600 1320c0 33.14-35.82 60-80 60s-80-26.86-80-60 35.82-60 80-60 80 26.86 80 60z" stroke="#333" fill="#fff"/><use xlink:href="#H" transform="matrix(1,0,0,1,464,1284) translate(7.024999999999999 28.799999999999997)"/><use xlink:href="#i" transform="matrix(1,0,0,1,464,1284) translate(61.025 28.799999999999997)"/><use xlink:href="#j" transform="matrix(1,0,0,1,464,1284) translate(22.549999999999997 50.4)"/><path d="M600 1500c0 33.14-35.82 60-80 60s-80-26.86-80-60 35.82-60 80-60 80 26.86 80 60z" stroke="#333" fill="#fff"/><use xlink:href="#I" transform="matrix(1,0,0,1,464,1464) translate(5.574999999999996 28.799999999999997)"/><use xlink:href="#i" transform="matrix(1,0,0,1,464,1464) translate(62.475 28.799999999999997)"/><use xlink:href="#j" transform="matrix(1,0,0,1,464,1464) translate(22.549999999999997 50.4)"/><path d="M600 1680c0 33.14-35.82 60-80 60s-80-26.86-80-60 35.82-60 80-60 80 26.86 80 60z" stroke="#333" fill="#fff"/><use xlink:href="#J" transform="matrix(1,0,0,1,464,1644) translate(29.049999999999997 18)"/><use xlink:href="#l" transform="matrix(1,0,0,1,464,1644) translate(19.525 39.6)"/><use xlink:href="#j" transform="matrix(1,0,0,1,464,1644) translate(22.549999999999997 61.2)"/><path d="M1000 1040c0 33.14-35.82 60-80 60s-80-26.86-80-60 35.82-60 80-60 80 26.86 80 60z" stroke="#333" fill="#fff"/><use xlink:href="#u" transform="matrix(1,0,0,1,864,1004) translate(12.574999999999996 28.799999999999997)"/><use xlink:href="#K" transform="matrix(1,0,0,1,864,1004) translate(62.525 28.799999999999997)"/><use xlink:href="#w" transform="matrix(1,0,0,1,864,1004) translate(32.05 50.4)"/><path d="M342.72 919.68l1.9.45 1.8.75 1.68 1.03 1.5 1.28 1.26 1.5 1.02 1.66.75 1.8.46 1.9.14 1.94v96l.15 1.82.4 1.76.7 1.67.94 1.54 1.18 1.38 1.37 1.17 1.54.95 1.67.7 1.76.4 1.83.16H823.1v.94H364.75l-1.93-.15-1.9-.45-1.82-.75-1.67-1.03-1.48-1.28-1.28-1.5-1.02-1.66-.75-1.8-.45-1.9-.16-1.94v-96l-.15-1.82-.42-1.76-.7-1.67-.94-1.54-1.18-1.38-1.38-1.17-1.54-.95-1.67-.7-1.76-.4-1.82-.15h-474.2v-.96h474.24z" stroke="#333" stroke-width=".05" fill="#333"/><path d="M-133.45 920.48h-3.5v-.96h3.5z" fill="#333"/><path stroke="#333" stroke-width=".05" fill="#333"/><path d="M837.88 1040l-14.26 4.63v-9.27z" fill="#333"/><path d="M839.42 1040l-16.28 5.3v-10.6zm-15.33 3.98l12.25-3.98-12.26-3.98zM520.48 1208.48l.14 1.82.42 1.76.7 1.67.94 1.54 1.17 1.38 1.38 1.17 1.54.95 1.67.7 1.76.4 1.82.16h166.32v.94H531.98l-1.93-.15-1.9-.45-1.8-.75-1.68-1.03-1.5-1.28-1.26-1.5-1.02-1.66-.75-1.8-.45-1.9-.15-1.94v-11.64h.95zm400 .04l-.16 1.93-.45 1.9-.75 1.8-1.03 1.68-1.28 1.5-1.5 1.26-1.66 1.02-1.8.75-1.9.45-1.94.15h-86.36v-.94h86.32l1.82-.15 1.76-.42 1.67-.7 1.54-.94 1.38-1.17 1.17-1.38.95-1.54.7-1.67.4-1.76.15-1.82V1101h.96z" stroke="#333" stroke-width=".05" fill="#333"/><path d="M920 1100.5h.48v.5h-.96v-.52z" fill="#333"/><path stroke="#333" stroke-width=".05" fill="#333"/><path d="M524.63 1196.38h-9.26l4.63-14.26z" fill="#333"/><path d="M525.3 1196.86h-10.6l5.3-16.28zm-9.28-.95h7.96l-3.98-12.25z" stroke="#333" stroke-width=".05" fill="#333"/><use xlink:href="#x" transform="matrix(1,0,0,1,698.3401234567901,1207.0333376103035) translate(0.005000000000002558 17.955555555555552)"/><path d="M1140 890c0 33.14-35.82 60-80 60s-80-26.86-80-60 35.82-60 80-60 80 26.86 80 60z" stroke="#333" fill="#fff"/><use xlink:href="#L" transform="matrix(1,0,0,1,1004,854) translate(12.524999999999999 28.799999999999997)"/><use xlink:href="#M" transform="matrix(1,0,0,1,1004,854) translate(84.475 28.799999999999997)"/><use xlink:href="#N" transform="matrix(1,0,0,1,1004,854) translate(5.074999999999996 50.4)"/><use xlink:href="#O" transform="matrix(1,0,0,1,1004,854) translate(54.025 50.4)"/><path d="M707.47 920.48h-90.6v-.96h90.6zm271.53-30H802.02l-1.82.14-1.76.42-1.67.7-1.54.94-1.38 1.17-1.17 1.38-.95 1.54-.7 1.67-.4 1.76-.15 1.82v4.5h-.96V902l.16-1.93.45-1.9.75-1.8 1.03-1.68 1.28-1.5 1.5-1.26 1.66-1.02 1.8-.75 1.9-.45 1.94-.15H979z" stroke="#333" stroke-width=".05" fill="#333"/><path d="M979.5 890v.4l-.5.08v-.96h.5z" fill="#333"/><path stroke="#333" stroke-width=".05" fill="#333"/><path d="M616.38 924.63L602.12 920l14.26-4.63z" fill="#333"/><path d="M616.86 925.3l-16.28-5.3 16.28-5.3zm-13.2-5.3l12.25 3.98v-7.96z" stroke="#333" stroke-width=".05" fill="#333"/><use xlink:href="#x" transform="matrix(1,0,0,1,707.466819651008,906.5333333333333) translate(0.005000000000002558 17.955555555555552)"/><path d="M1857.67 801.57h-302.42c0-2.76-2.24-5-5-5s-5 2.24-5 5h-33.9a12 12 0 0 0-12 12V878a12 12 0 0 1-12 12h-330.47M1857.66 801.57h3.5" stroke="#333" fill="none"/><path d="M1142.12 890l14.26-4.63v9.26z" stroke="#333" fill="#333"/><path d="M1100 1320c0 33.14-35.82 60-80 60s-80-26.86-80-60 35.82-60 80-60 80 26.86 80 60z" stroke="#333" fill="#fff"/><use xlink:href="#P" transform="matrix(1,0,0,1,964,1284) translate(11.549999999999997 18)"/><use xlink:href="#Q" transform="matrix(1,0,0,1,964,1284) translate(13.575000000000003 39.6)"/><use xlink:href="#i" transform="matrix(1,0,0,1,964,1284) translate(54.475 39.6)"/><use xlink:href="#O" transform="matrix(1,0,0,1,964,1284) translate(29.549999999999997 61.2)"/><path d="M770.48 1488.02l-.16 1.93-.45 1.9-.75 1.8-1.03 1.68-1.28 1.5-1.5 1.26-1.66 1.02-1.8.75-1.9.45-1.94.15H616.88v-.94h141.1l1.82-.15 1.76-.42 1.67-.7 1.54-.94 1.38-1.17 1.17-1.38.95-1.54.7-1.67.4-1.76.15-1.82v-64.5h.96zM939 1320.47H782.02l-1.82.15-1.76.42-1.67.7-1.54.94-1.38 1.17-1.17 1.38-.95 1.54-.7 1.67-.4 1.76-.15 1.82v64.5h-.96V1332l.16-1.93.45-1.9.75-1.8 1.03-1.68 1.28-1.5 1.5-1.26 1.66-1.02 1.8-.75 1.9-.45 1.94-.15H939z" stroke="#333" stroke-width=".05" fill="#333"/><path d="M939.5 1320v.4l-.5.07v-.94h.5z" fill="#333"/><path stroke="#333" stroke-width=".05" fill="#333"/><path d="M616.38 1504.63l-14.26-4.63 14.26-4.63z" fill="#333"/><path d="M616.86 1505.3l-16.28-5.3 16.28-5.3zm-13.2-5.3l12.25 3.98v-7.96z" stroke="#333" stroke-width=".05" fill="#333"/><use xlink:href="#x" transform="matrix(1,0,0,1,708.3401234567901,1396.5333333333333) translate(0.005000000000002558 17.955555555555552)"/><path d="M1819.5 800h-347.25a12 12 0 0 0-12 12v73c-2.76 0-5 2.24-5 5s2.24 5 5 5v140c-2.76 0-5 2.24-5 5s2.24 5 5 5v263a12 12 0 0 1-12 12h-331.37" stroke="#333" fill="none"/><path d="M1823 800.48h-3.5v-.96h3.5z" stroke="#333" stroke-width=".05" fill="#333"/><path d="M1102.12 1320l14.26-4.63v9.27z" stroke="#333" fill="#333"/><path d="M600 2760c0 33.14-35.82 60-80 60s-80-26.86-80-60 35.82-60 80-60 80 26.86 80 60z" stroke="#333" fill="#fff"/><use xlink:href="#R" transform="matrix(1,0,0,1,464,2724) translate(24.525 18)"/><use xlink:href="#S" transform="matrix(1,0,0,1,464,2724) translate(30.574999999999996 39.6)"/><use xlink:href="#T" transform="matrix(1,0,0,1,464,2724) translate(23.525 61.2)"/><path d="M-133.96 920.5V1026c-2.77 0-5 2.24-5 5s2.23 5 5 5v1712a12 12 0 0 0 12 12h545.08" stroke="#333" fill="none"/><path d="M-133.5 920.5h-.94V917h.95z" stroke="#333" stroke-width=".05" fill="#333"/><path d="M437.88 2760l-14.26 4.64v-9.28z" stroke="#333" fill="#333"/><path d="M1000 2680c0 33.14-35.82 60-80 60s-80-26.86-80-60 35.82-60 80-60 80 26.86 80 60z" stroke="#333" fill="#fff"/><use xlink:href="#R" transform="matrix(1,0,0,1,864,2644) translate(24.525 28.799999999999997)"/><use xlink:href="#U" transform="matrix(1,0,0,1,864,2644) translate(2.624999999999993 50.4)"/><use xlink:href="#V" transform="matrix(1,0,0,1,864,2644) translate(58.475 50.4)"/><path d="M1000 2840c0 33.14-35.82 60-80 60s-80-26.86-80-60 35.82-60 80-60 80 26.86 80 60z" stroke="#333" fill="#fff"/><g><use xlink:href="#R" transform="matrix(1,0,0,1,864,2804) translate(24.525 28.799999999999997)"/><use xlink:href="#W" transform="matrix(1,0,0,1,864,2804) translate(14.574999999999996 50.4)"/></g><path d="M720.48 2748.02l-.16 1.93-.45 1.9-.75 1.8-1.03 1.68-1.28 1.5-1.5 1.26-1.66 1.02-1.8.75-1.9.45-1.94.15h-91.14v-.94h91.1l1.82-.15 1.76-.42 1.67-.7 1.54-.94 1.38-1.17 1.17-1.38.95-1.54.7-1.67.4-1.76.15-1.82v-14.5h.96zM839 2680.47H732.02l-1.82.15-1.76.42-1.67.7-1.54.94-1.38 1.17-1.17 1.38-.95 1.54-.7 1.67-.4 1.76-.15 1.82v14.5h-.96V2692l.16-1.93.45-1.9.75-1.8 1.03-1.68 1.28-1.5 1.5-1.26 1.66-1.02 1.8-.75 1.9-.45 1.94-.15H839z" stroke="#333" stroke-width=".05" fill="#333"/><path d="M839.5 2680v.4l-.5.07v-.94h.5z" fill="#333"/><path stroke="#333" stroke-width=".05" fill="#333"/><path d="M616.38 2764.64l-14.26-4.64 14.26-4.64z" fill="#333"/><path d="M616.86 2765.3l-16.28-5.3 16.28-5.3zm-13.2-5.3l12.25 3.98v-7.96z" stroke="#333" stroke-width=".05" fill="#333"/><g><use xlink:href="#x" transform="matrix(1,0,0,1,658.3401234567901,2706.5333333333333) translate(0.005000000000002558 17.955555555555552)"/></g><path d="M720.48 2827.98l.14 1.82.42 1.76.7 1.67.94 1.54 1.17 1.38 1.38 1.17 1.54.95 1.67.7 1.76.4 1.82.16H839v.94H731.98l-1.93-.15-1.9-.45-1.8-.75-1.68-1.03-1.5-1.28-1.26-1.5-1.02-1.66-.75-1.8-.45-1.9-.15-1.94v-14.55h.95zm-10.53-68.3l1.9.45 1.8.75 1.68 1.03 1.5 1.28 1.26 1.5 1.02 1.66.75 1.8.45 1.9.15 1.94v14.55h-.95v-14.5l-.14-1.83-.42-1.76-.7-1.67-.94-1.54-1.17-1.38-1.38-1.17-1.54-.95-1.67-.7-1.76-.4-1.82-.16h-91.1v-.94h91.14z" stroke="#333" stroke-width=".05" fill="#333"/><path d="M839.5 2840v.4l-.5.07v-.94h.5z" fill="#333"/><path stroke="#333" stroke-width=".05" fill="#333"/><path d="M616.38 2764.64l-14.26-4.64 14.26-4.64z" fill="#333"/><path d="M616.86 2765.3l-16.28-5.3 16.28-5.3zm-13.2-5.3l12.25 3.98v-7.96z" stroke="#333" stroke-width=".05" fill="#333"/><g><use xlink:href="#x" transform="matrix(1,0,0,1,658.3401234567901,2786.5333333333333) translate(0.005000000000002558 17.955555555555552)"/></g><path d="M214.94 2928.48l.15 1.82.4 1.76.7 1.67.95 1.54 1.17 1.38 1.38 1.17 1.54.95 1.67.7 1.77.4 1.82.16h681.48l1.82-.15 1.76-.42 1.67-.7 1.54-.94 1.38-1.17 1.17-1.38.95-1.54.7-1.67.4-1.76.15-1.82v-11.6h.96v11.64l-.16 1.93-.45 1.9-.75 1.8-1.03 1.68-1.28 1.5-1.5 1.26-1.66 1.02-1.8.75-1.9.45-1.94.15H226.45l-1.93-.15-1.9-.45-1.8-.75-1.68-1.03-1.5-1.28-1.26-1.5-1.03-1.66-.75-1.8-.45-1.9-.16-1.94V2760.5h.94zM214.94 2760.5H214v-.5h.94z" stroke="#333" stroke-width=".05" fill="#333"/><path d="M924.63 2916.38h-9.26l4.63-14.26z" fill="#333"/><path d="M925.3 2916.86h-10.6l5.3-16.28zm-9.28-.95h7.96l-3.98-12.24zM909.95 2579.18l1.9.45 1.8.75 1.68 1.03 1.5 1.28 1.26 1.5 1.02 1.66.75 1.8.45 1.9.15 1.94v11.64h-.95v-11.6l-.14-1.82-.42-1.76-.7-1.67-.94-1.54-1.17-1.38-1.38-1.17-1.54-.95-1.67-.7-1.76-.4-1.82-.16h-75.96l-1.82.15-1.76.42-1.67.7-1.54.94-1.38 1.17-1.17 1.38-.95 1.54-.7 1.67-.4 1.76-.15 1.82v46.5l-.16 1.93-.45 1.9-.75 1.8-1.03 1.68-1.28 1.5-1.5 1.26-1.66 1.02-1.8.75-1.9.45-1.94.15H575.25l-1.82.15-1.76.42-1.67.7-1.54.94-1.37 1.17-1.2 1.38-.93 1.54-.7 1.67-.42 1.76-.14 1.82v6l-.14 1.93-.46 1.9-.75 1.8-1.02 1.68-1.27 1.5-1.5 1.26-1.66 1.02-1.8.75-1.9.45-1.95.15H226.5l-1.83.15-1.76.42-1.66.7-1.54.94-1.38 1.17-1.17 1.38-.95 1.54-.7 1.67-.4 1.76-.16 1.82v67.48H214v-67.52l.15-1.93.45-1.9.75-1.8 1.03-1.68 1.27-1.5 1.5-1.26 1.66-1.02 1.8-.75 1.92-.45 1.93-.15h324.77l1.82-.15 1.76-.42 1.67-.7 1.54-.94 1.38-1.17 1.18-1.38.94-1.54.7-1.67.42-1.76.14-1.82v-6l.15-1.93.47-1.9.75-1.8 1.02-1.68 1.27-1.5 1.5-1.26 1.67-1.02 1.8-.75 1.9-.45 1.95-.15h232.76l1.82-.15 1.76-.42 1.67-.7 1.54-.94 1.38-1.17 1.17-1.38.95-1.54.7-1.67.4-1.76.15-1.82v-46.5l.16-1.93.45-1.9.75-1.8 1.03-1.68 1.28-1.5 1.5-1.26 1.66-1.02 1.8-.75 1.9-.45 1.94-.15h76.04zM214.94 2760H214v-.5h.94z" stroke="#333" stroke-width=".05" fill="#333"/><path d="M920 2617.88l-4.63-14.26h9.26z" fill="#333"/><path d="M920 2619.42l-5.3-16.28h10.6zm-3.98-15.33l3.98 12.24 3.98-12.25z" stroke="#333" stroke-width=".05" fill="#333"/><path d="M920 1780c0 33.14-35.82 60-80 60s-80-26.86-80-60 35.82-60 80-60 80 26.86 80 60z" stroke="#333" fill="#fff"/><g><use xlink:href="#h" transform="matrix(1,0,0,1,784,1744) translate(18.574999999999996 39.6)"/><use xlink:href="#G" transform="matrix(1,0,0,1,784,1744) translate(56.525 39.6)"/></g><path d="M920 2320c0 33.14-35.82 60-80 60s-80-26.86-80-60 35.82-60 80-60 80 26.86 80 60z" stroke="#333" fill="#fff"/><g><use xlink:href="#X" transform="matrix(1,0,0,1,784,2284) translate(7.075000000000003 28.799999999999997)"/><use xlink:href="#Y" transform="matrix(1,0,0,1,784,2284) translate(54.075 28.799999999999997)"/><use xlink:href="#Z" transform="matrix(1,0,0,1,784,2284) translate(22.525 50.4)"/></g><path d="M920 1960c0 33.14-35.82 60-80 60s-80-26.86-80-60 35.82-60 80-60 80 26.86 80 60z" stroke="#333" fill="#fff"/><g><use xlink:href="#aa" transform="matrix(1,0,0,1,784,1924) translate(0.5750000000000028 28.799999999999997)"/><use xlink:href="#Y" transform="matrix(1,0,0,1,784,1924) translate(60.575 28.799999999999997)"/><use xlink:href="#Z" transform="matrix(1,0,0,1,784,1924) translate(22.525 50.4)"/></g><path d="M920 2140c0 33.14-35.82 60-80 60s-80-26.86-80-60 35.82-60 80-60 80 26.86 80 60z" stroke="#333" fill="#fff"/><g><use xlink:href="#ab" transform="matrix(1,0,0,1,784,2104) translate(26.074999999999996 18)"/><use xlink:href="#Y" transform="matrix(1,0,0,1,784,2104) translate(30.575 39.6)"/><use xlink:href="#Z" transform="matrix(1,0,0,1,784,2104) translate(22.525 61.2)"/></g><path d="M-73.46 1780h241.23c0-2.76 2.24-5 5-5s5 2.24 5 5h565.35M-73.45 1780h-.5" stroke="#333" fill="none"/><path d="M757.88 1780l-14.26 4.63v-9.27z" stroke="#333" fill="#333"/><path d="M-73.46 1960h241.23c0-2.76 2.24-5 5-5s5 2.24 5 5h565.35M-73.45 1960h-.5" stroke="#333" fill="none"/><path d="M757.88 1960l-14.26 4.63v-9.27z" stroke="#333" fill="#333"/><path d="M-73.46 2140h816.58M-73.45 2140h-.5" stroke="#333" fill="none"/><path d="M757.88 2140l-14.26 4.64v-9.28z" stroke="#333" fill="#333"/><path d="M-73.46 2320h816.58M-73.45 2320h-.5" stroke="#333" fill="none"/><path d="M757.88 2320l-14.26 4.64v-9.28z" stroke="#333" fill="#333"/><defs><path d="M240-174c0 40-23 61-54 70L253 0h-59l-57-94H76V0H24v-248c93 4 217-23 216 74zM76-134c48-2 112 12 112-38 0-48-66-32-112-35v73" id="ac"/><path d="M110-194c64 0 96 36 96 99 0 64-35 99-97 99-61 0-95-36-95-99 0-62 34-99 96-99zm-1 164c35 0 45-28 45-65 0-40-10-65-43-65-34 0-45 26-45 65 0 36 10 65 43 65" id="ad"/><path d="M144 0l-44-69L55 0H2l70-98-66-92h53l41 62 40-62h54l-67 91 71 99h-54" id="ae"/><path d="M25-224v-37h50v37H25zM25 0v-190h50V0H25" id="af"/><path d="M88-194c31-1 46 15 58 34l-1-101h50l1 261h-48c-2-10 0-23-3-31C134-8 116 4 84 4 32 4 16-41 15-95c0-56 19-97 73-99zm17 164c33 0 40-30 41-66 1-37-9-64-41-64s-38 30-39 65c0 43 13 65 39 65" id="ag"/><g id="a"><use transform="matrix(0.08641975308641976,0,0,0.08641975308641976,0,0)" xlink:href="#ac"/><use transform="matrix(0.08641975308641976,0,0,0.08641975308641976,22.38271604938272,0)" xlink:href="#ad"/><use transform="matrix(0.08641975308641976,0,0,0.08641975308641976,41.308641975308646,0)" xlink:href="#ae"/><use transform="matrix(0.08641975308641976,0,0,0.08641975308641976,58.592592592592595,0)" xlink:href="#af"/><use transform="matrix(0.08641975308641976,0,0,0.08641975308641976,67.23456790123457,0)" xlink:href="#ag"/></g><path d="M232-93c-1 65-40 97-104 97C67 4 28-28 28-90v-158h33c8 89-33 224 67 224 102 0 64-133 71-224h33v155" id="ah"/><path d="M135-143c-3-34-86-38-87 0 15 53 115 12 119 90S17 21 10-45l28-5c4 36 97 45 98 0-10-56-113-15-118-90-4-57 82-63 122-42 12 7 21 19 24 35" id="ai"/><path d="M100-194c63 0 86 42 84 106H49c0 40 14 67 53 68 26 1 43-12 49-29l28 8c-11 28-37 45-77 45C44 4 14-33 15-96c1-61 26-98 85-98zm52 81c6-60-76-77-97-28-3 7-6 17-6 28h103" id="aj"/><path d="M114-163C36-179 61-72 57 0H25l-1-190h30c1 12-1 29 2 39 6-27 23-49 58-41v29" id="ak"/><g id="b"><use transform="matrix(0.06234567901234565,0,0,0.06234567901234565,0,0)" xlink:href="#ah"/><use transform="matrix(0.06234567901234565,0,0,0.06234567901234565,16.147530864197524,0)" xlink:href="#ai"/><use transform="matrix(0.06234567901234565,0,0,0.06234567901234565,27.369753086419742,0)" xlink:href="#aj"/><use transform="matrix(0.06234567901234565,0,0,0.06234567901234565,39.838888888888874,0)" xlink:href="#ak"/></g><path d="M185-189c-5-48-123-54-124 2 14 75 158 14 163 119 3 78-121 87-175 55-17-10-28-26-33-46l33-7c5 56 141 63 141-1 0-78-155-14-162-118-5-82 145-84 179-34 5 7 8 16 11 25" id="al"/><path d="M24-231v-30h32v30H24zM24 0v-190h32V0H24" id="am"/><path d="M177-190C167-65 218 103 67 71c-23-6-38-20-44-43l32-5c15 47 100 32 89-28v-30C133-14 115 1 83 1 29 1 15-40 15-95c0-56 16-97 71-98 29-1 48 16 59 35 1-10 0-23 2-32h30zM94-22c36 0 50-32 50-73 0-42-14-75-50-75-39 0-46 34-46 75s6 73 46 73" id="an"/><path d="M117-194c89-4 53 116 60 194h-32v-121c0-31-8-49-39-48C34-167 62-67 57 0H25l-1-190h30c1 10-1 24 2 32 11-22 29-35 61-36" id="ao"/><g id="c"><use transform="matrix(0.05,0,0,0.05,0,0)" xlink:href="#al"/><use transform="matrix(0.05,0,0,0.05,12,0)" xlink:href="#am"/><use transform="matrix(0.05,0,0,0.05,15.949999999999998,0)" xlink:href="#an"/><use transform="matrix(0.05,0,0,0.05,25.950000000000003,0)" xlink:href="#ao"/></g><path d="M84 4C-5 8 30-112 23-190h32v120c0 31 7 50 39 49 72-2 45-101 50-169h31l1 190h-30c-1-10 1-25-2-33-11 22-28 36-60 37" id="ap"/><path d="M115-194c55 1 70 41 70 98S169 2 115 4C84 4 66-9 55-30l1 105H24l-1-265h31l2 30c10-21 28-34 59-34zm-8 174c40 0 45-34 45-75s-6-73-45-74c-42 0-51 32-51 76 0 43 10 73 51 73" id="aq"/><g id="d"><use transform="matrix(0.05,0,0,0.05,0,0)" xlink:href="#ap"/><use transform="matrix(0.05,0,0,0.05,10,0)" xlink:href="#aq"/></g><path d="M30 0v-248h33v221h125V0H30" id="ar"/><path d="M100-194c62-1 85 37 85 99 1 63-27 99-86 99S16-35 15-95c0-66 28-99 85-99zM99-20c44 1 53-31 53-75 0-43-8-75-51-75s-53 32-53 75 10 74 51 75" id="as"/><g id="e"><use transform="matrix(0.05,0,0,0.05,0,0)" xlink:href="#ar"/><use transform="matrix(0.05,0,0,0.05,10,0)" xlink:href="#as"/><use transform="matrix(0.05,0,0,0.05,20,0)" xlink:href="#an"/><use transform="matrix(0.05,0,0,0.05,30,0)" xlink:href="#am"/><use transform="matrix(0.05,0,0,0.05,33.95,0)" xlink:href="#ao"/></g><g id="f"><use transform="matrix(0.05,0,0,0.05,0,0)" xlink:href="#ar"/><use transform="matrix(0.05,0,0,0.05,10,0)" xlink:href="#as"/><use transform="matrix(0.05,0,0,0.05,20,0)" xlink:href="#an"/></g><path d="M59-47c-2 24 18 29 38 22v24C64 9 27 4 27-40v-127H5v-23h24l9-43h21v43h35v23H59v120" id="at"/><g id="g"><use transform="matrix(0.05,0,0,0.05,0,0)" xlink:href="#as"/><use transform="matrix(0.05,0,0,0.05,10,0)" xlink:href="#ap"/><use transform="matrix(0.05,0,0,0.05,20,0)" xlink:href="#at"/></g><path d="M153-248C145-148 188 4 80 4 36 3 13-21 6-62l32-5c4 25 16 42 43 43 27 0 39-20 39-49v-147H72v-28h81" id="au"/><g id="h"><use transform="matrix(0.05,0,0,0.05,0,0)" xlink:href="#au"/><use transform="matrix(0.05,0,0,0.05,9,0)" xlink:href="#as"/><use transform="matrix(0.05,0,0,0.05,19,0)" xlink:href="#am"/><use transform="matrix(0.05,0,0,0.05,22.95,0)" xlink:href="#ao"/></g><path d="M137 0h-34L2-248h35l83 218 83-218h36" id="av"/><path d="M96-169c-40 0-48 33-48 73s9 75 48 75c24 0 41-14 43-38l32 2c-6 37-31 61-74 61-59 0-76-41-82-99-10-93 101-131 147-64 4 7 5 14 7 22l-32 3c-4-21-16-35-41-35" id="aw"/><g id="i"><use transform="matrix(0.05,0,0,0.05,0,0)" xlink:href="#av"/><use transform="matrix(0.05,0,0,0.05,11,0)" xlink:href="#as"/><use transform="matrix(0.05,0,0,0.05,21,0)" xlink:href="#am"/><use transform="matrix(0.05,0,0,0.05,24.95,0)" xlink:href="#aw"/><use transform="matrix(0.05,0,0,0.05,33.95,0)" xlink:href="#aj"/></g><path d="M212-179c-10-28-35-45-73-45-59 0-87 40-87 99 0 60 29 101 89 101 43 0 62-24 78-52l27 14C228-24 195 4 139 4 59 4 22-46 18-125c-6-104 99-153 187-111 19 9 31 26 39 46" id="ax"/><path d="M106-169C34-169 62-67 57 0H25v-261h32l-1 103c12-21 28-36 61-36 89 0 53 116 60 194h-32v-121c2-32-8-49-39-48" id="ay"/><path d="M141-36C126-15 110 5 73 4 37 3 15-17 15-53c-1-64 63-63 125-63 3-35-9-54-41-54-24 1-41 7-42 31l-33-3c5-37 33-52 76-52 45 0 72 20 72 64v82c-1 20 7 32 28 27v20c-31 9-61-2-59-35zM48-53c0 20 12 33 32 33 41-3 63-29 60-74-43 2-92-5-92 41" id="az"/><path d="M24 0v-261h32V0H24" id="aA"/><g id="j"><use transform="matrix(0.05,0,0,0.05,0,0)" xlink:href="#ax"/><use transform="matrix(0.05,0,0,0.05,12.950000000000001,0)" xlink:href="#ay"/><use transform="matrix(0.05,0,0,0.05,22.950000000000003,0)" xlink:href="#az"/><use transform="matrix(0.05,0,0,0.05,32.95,0)" xlink:href="#ao"/><use transform="matrix(0.05,0,0,0.05,42.95,0)" xlink:href="#ao"/><use transform="matrix(0.05,0,0,0.05,52.95,0)" xlink:href="#aj"/><use transform="matrix(0.05,0,0,0.05,62.95,0)" xlink:href="#aA"/></g><path d="M30-248c118-7 216 8 213 122C240-48 200 0 122 0H30v-248zM63-27c89 8 146-16 146-99s-60-101-146-95v194" id="aB"/><g id="k"><use transform="matrix(0.05,0,0,0.05,0,0)" xlink:href="#aB"/><use transform="matrix(0.05,0,0,0.05,12.950000000000001,0)" xlink:href="#aj"/><use transform="matrix(0.05,0,0,0.05,22.950000000000003,0)" xlink:href="#aA"/><use transform="matrix(0.05,0,0,0.05,26.900000000000002,0)" xlink:href="#aj"/><use transform="matrix(0.05,0,0,0.05,36.900000000000006,0)" xlink:href="#at"/><use transform="matrix(0.05,0,0,0.05,41.900000000000006,0)" xlink:href="#aj"/></g><path d="M240 0l2-218c-23 76-54 145-80 218h-23L58-218 59 0H30v-248h44l77 211c21-75 51-140 76-211h43V0h-30" id="aC"/><g id="l"><use transform="matrix(0.05,0,0,0.05,0,0)" xlink:href="#aC"/><use transform="matrix(0.05,0,0,0.05,14.950000000000001,0)" xlink:href="#aj"/><use transform="matrix(0.05,0,0,0.05,24.950000000000003,0)" xlink:href="#ai"/><use transform="matrix(0.05,0,0,0.05,33.95,0)" xlink:href="#ai"/><use transform="matrix(0.05,0,0,0.05,42.95,0)" xlink:href="#az"/><use transform="matrix(0.05,0,0,0.05,52.95,0)" xlink:href="#an"/><use transform="matrix(0.05,0,0,0.05,62.95,0)" xlink:href="#aj"/></g><path d="M85-194c31 0 48 13 60 33l-1-100h32l1 261h-30c-2-10 0-23-3-31C134-8 116 4 85 4 32 4 16-35 15-94c0-66 23-100 70-100zm9 24c-40 0-46 34-46 75 0 40 6 74 45 74 42 0 51-32 51-76 0-42-9-74-50-73" id="aD"/><g id="m"><use transform="matrix(0.05,0,0,0.05,0,0)" xlink:href="#al"/><use transform="matrix(0.05,0,0,0.05,12,0)" xlink:href="#aj"/><use transform="matrix(0.05,0,0,0.05,22,0)" xlink:href="#ao"/><use transform="matrix(0.05,0,0,0.05,32,0)" xlink:href="#aD"/></g><g id="n"><use transform="matrix(0.05,0,0,0.05,0,0)" xlink:href="#aC"/><use transform="matrix(0.05,0,0,0.05,14.950000000000001,0)" xlink:href="#aj"/><use transform="matrix(0.05,0,0,0.05,24.950000000000003,0)" xlink:href="#ai"/><use transform="matrix(0.05,0,0,0.05,33.95,0)" xlink:href="#ai"/><use transform="matrix(0.05,0,0,0.05,42.95,0)" xlink:href="#az"/><use transform="matrix(0.05,0,0,0.05,52.95,0)" xlink:href="#an"/><use transform="matrix(0.05,0,0,0.05,62.95,0)" xlink:href="#aj"/></g><path d="M233-177c-1 41-23 64-60 70L243 0h-38l-65-103H63V0H30v-248c88 3 205-21 203 71zM63-129c60-2 137 13 137-47 0-61-80-42-137-45v92" id="aE"/><path d="M108 0H70L1-190h34L89-25l56-165h34" id="aF"/><g id="o"><use transform="matrix(0.05,0,0,0.05,0,0)" xlink:href="#aE"/><use transform="matrix(0.05,0,0,0.05,12.950000000000001,0)" xlink:href="#aj"/><use transform="matrix(0.05,0,0,0.05,22.950000000000003,0)" xlink:href="#aw"/><use transform="matrix(0.05,0,0,0.05,31.950000000000003,0)" xlink:href="#am"/><use transform="matrix(0.05,0,0,0.05,35.900000000000006,0)" xlink:href="#aj"/><use transform="matrix(0.05,0,0,0.05,45.900000000000006,0)" xlink:href="#aF"/><use transform="matrix(0.05,0,0,0.05,54.900000000000006,0)" xlink:href="#aj"/></g><path d="M206 0h-36l-40-164L89 0H53L-1-190h32L70-26l43-164h34l41 164 42-164h31" id="aG"/><g id="p"><use transform="matrix(0.05,0,0,0.05,0,0)" xlink:href="#av"/><use transform="matrix(0.05,0,0,0.05,11.65,0)" xlink:href="#am"/><use transform="matrix(0.05,0,0,0.05,15.600000000000001,0)" xlink:href="#aj"/><use transform="matrix(0.05,0,0,0.05,25.6,0)" xlink:href="#aG"/></g><path d="M197 0v-115H63V0H30v-248h33v105h134v-105h34V0h-34" id="aH"/><path d="M179-190L93 31C79 59 56 82 12 73V49c39 6 53-20 64-50L1-190h34L92-34l54-156h33" id="aI"/><g id="q"><use transform="matrix(0.05,0,0,0.05,0,0)" xlink:href="#aH"/><use transform="matrix(0.05,0,0,0.05,12.950000000000001,0)" xlink:href="#am"/><use transform="matrix(0.05,0,0,0.05,16.900000000000002,0)" xlink:href="#ai"/><use transform="matrix(0.05,0,0,0.05,25.900000000000002,0)" xlink:href="#at"/><use transform="matrix(0.05,0,0,0.05,30.900000000000002,0)" xlink:href="#as"/><use transform="matrix(0.05,0,0,0.05,40.900000000000006,0)" xlink:href="#ak"/><use transform="matrix(0.05,0,0,0.05,46.85000000000001,0)" xlink:href="#aI"/></g><path d="M190 0L58-211 59 0H30v-248h39L202-35l-2-213h31V0h-41" id="aJ"/><g id="r"><use transform="matrix(0.06234567901234567,0,0,0.06234567901234567,0,0)" xlink:href="#aJ"/><use transform="matrix(0.06234567901234567,0,0,0.06234567901234567,16.147530864197527,0)" xlink:href="#aj"/><use transform="matrix(0.06234567901234567,0,0,0.06234567901234567,28.61666666666666,0)" xlink:href="#aG"/></g><g id="s"><use transform="matrix(0.06234567901234567,0,0,0.06234567901234567,0,0)" xlink:href="#ah"/><use transform="matrix(0.06234567901234567,0,0,0.06234567901234567,16.147530864197527,0)" xlink:href="#ai"/><use transform="matrix(0.06234567901234567,0,0,0.06234567901234567,27.36975308641975,0)" xlink:href="#aj"/><use transform="matrix(0.06234567901234567,0,0,0.06234567901234567,39.83888888888888,0)" xlink:href="#ak"/></g><path d="M210-169c-67 3-38 105-44 169h-31v-121c0-29-5-50-35-48C34-165 62-65 56 0H25l-1-190h30c1 10-1 24 2 32 10-44 99-50 107 0 11-21 27-35 58-36 85-2 47 119 55 194h-31v-121c0-29-5-49-35-48" id="aK"/><g id="t"><use transform="matrix(0.06234567901234567,0,0,0.06234567901234567,0,0)" xlink:href="#al"/><use transform="matrix(0.06234567901234567,0,0,0.06234567901234567,14.96296296296296,0)" xlink:href="#aI"/><use transform="matrix(0.06234567901234567,0,0,0.06234567901234567,26.18518518518518,0)" xlink:href="#ai"/><use transform="matrix(0.06234567901234567,0,0,0.06234567901234567,37.4074074074074,0)" xlink:href="#at"/><use transform="matrix(0.06234567901234567,0,0,0.06234567901234567,43.64197530864196,0)" xlink:href="#aj"/><use transform="matrix(0.06234567901234567,0,0,0.06234567901234567,56.11111111111109,0)" xlink:href="#aK"/></g><path d="M205 0l-28-72H64L36 0H1l101-248h38L239 0h-34zm-38-99l-47-123c-12 45-31 82-46 123h93" id="aL"/><g id="u"><use transform="matrix(0.05,0,0,0.05,0,0)" xlink:href="#aL"/><use transform="matrix(0.05,0,0,0.05,12,0)" xlink:href="#ai"/><use transform="matrix(0.05,0,0,0.05,21,0)" xlink:href="#am"/><use transform="matrix(0.05,0,0,0.05,24.95,0)" xlink:href="#an"/><use transform="matrix(0.05,0,0,0.05,34.95,0)" xlink:href="#ao"/></g><g id="v"><use transform="matrix(0.05,0,0,0.05,0,0)" xlink:href="#ax"/><use transform="matrix(0.05,0,0,0.05,12.950000000000001,0)" xlink:href="#ay"/><use transform="matrix(0.05,0,0,0.05,22.950000000000003,0)" xlink:href="#az"/><use transform="matrix(0.05,0,0,0.05,32.95,0)" xlink:href="#ao"/><use transform="matrix(0.05,0,0,0.05,42.95,0)" xlink:href="#ao"/><use transform="matrix(0.05,0,0,0.05,52.95,0)" xlink:href="#aj"/><use transform="matrix(0.05,0,0,0.05,62.95,0)" xlink:href="#aA"/></g><g id="w"><use transform="matrix(0.05,0,0,0.05,0,0)" xlink:href="#aJ"/><use transform="matrix(0.05,0,0,0.05,12.950000000000001,0)" xlink:href="#az"/><use transform="matrix(0.05,0,0,0.05,22.950000000000003,0)" xlink:href="#aK"/><use transform="matrix(0.05,0,0,0.05,37.900000000000006,0)" xlink:href="#aj"/></g><path d="M18-100v-36l175-74v27L42-118l151 64v27" id="aM"/><path d="M18-27v-27l151-64-151-65v-27l175 74v36" id="aN"/><g id="x"><use transform="matrix(0.06234567901234567,0,0,0.06234567901234567,0,0)" xlink:href="#aM"/><use transform="matrix(0.06234567901234567,0,0,0.06234567901234567,13.09259259259259,0)" xlink:href="#aM"/><use transform="matrix(0.06234567901234567,0,0,0.06234567901234567,26.18518518518518,0)" xlink:href="#am"/><use transform="matrix(0.06234567901234567,0,0,0.06234567901234567,31.11049382716049,0)" xlink:href="#ao"/><use transform="matrix(0.06234567901234567,0,0,0.06234567901234567,43.57962962962962,0)" xlink:href="#aw"/><use transform="matrix(0.06234567901234567,0,0,0.06234567901234567,54.80185185185184,0)" xlink:href="#aA"/><use transform="matrix(0.06234567901234567,0,0,0.06234567901234567,59.72716049382715,0)" xlink:href="#ap"/><use transform="matrix(0.06234567901234567,0,0,0.06234567901234567,72.19629629629628,0)" xlink:href="#aD"/><use transform="matrix(0.06234567901234567,0,0,0.06234567901234567,84.66543209876542,0)" xlink:href="#aj"/><use transform="matrix(0.06234567901234567,0,0,0.06234567901234567,97.13456790123456,0)" xlink:href="#aN"/><use transform="matrix(0.06234567901234567,0,0,0.06234567901234567,110.22716049382716,0)" xlink:href="#aN"/></g><g id="y"><use transform="matrix(0.05,0,0,0.05,0,0)" xlink:href="#ax"/><use transform="matrix(0.05,0,0,0.05,12.950000000000001,0)" xlink:href="#ak"/><use transform="matrix(0.05,0,0,0.05,18.900000000000002,0)" xlink:href="#aj"/><use transform="matrix(0.05,0,0,0.05,28.900000000000002,0)" xlink:href="#az"/><use transform="matrix(0.05,0,0,0.05,38.900000000000006,0)" xlink:href="#at"/><use transform="matrix(0.05,0,0,0.05,43.900000000000006,0)" xlink:href="#aj"/></g><path d="M101-234c-31-9-42 10-38 44h38v23H63V0H32v-167H5v-23h27c-7-52 17-82 69-68v24" id="aO"/><g id="z"><use transform="matrix(0.05,0,0,0.05,0,0)" xlink:href="#ax"/><use transform="matrix(0.05,0,0,0.05,12.950000000000001,0)" xlink:href="#as"/><use transform="matrix(0.05,0,0,0.05,22.950000000000003,0)" xlink:href="#ao"/><use transform="matrix(0.05,0,0,0.05,32.95,0)" xlink:href="#aO"/><use transform="matrix(0.05,0,0,0.05,37.95,0)" xlink:href="#am"/><use transform="matrix(0.05,0,0,0.05,41.900000000000006,0)" xlink:href="#ak"/><use transform="matrix(0.05,0,0,0.05,47.85000000000001,0)" xlink:href="#aK"/><use transform="matrix(0.05,0,0,0.05,62.80000000000001,0)" xlink:href="#az"/><use transform="matrix(0.05,0,0,0.05,72.80000000000001,0)" xlink:href="#at"/><use transform="matrix(0.05,0,0,0.05,77.80000000000001,0)" xlink:href="#am"/><use transform="matrix(0.05,0,0,0.05,81.75000000000001,0)" xlink:href="#as"/><use transform="matrix(0.05,0,0,0.05,91.75000000000001,0)" xlink:href="#ao"/></g><path d="M30 0v-248h187v28H63v79h144v27H63v87h162V0H30" id="aP"/><g id="A"><use transform="matrix(0.05,0,0,0.05,0,0)" xlink:href="#aP"/><use transform="matrix(0.05,0,0,0.05,12,0)" xlink:href="#aK"/><use transform="matrix(0.05,0,0,0.05,26.950000000000003,0)" xlink:href="#az"/><use transform="matrix(0.05,0,0,0.05,36.95,0)" xlink:href="#am"/><use transform="matrix(0.05,0,0,0.05,40.900000000000006,0)" xlink:href="#aA"/></g><g id="B"><use transform="matrix(0.05,0,0,0.05,0,0)" xlink:href="#aJ"/><use transform="matrix(0.05,0,0,0.05,12.950000000000001,0)" xlink:href="#as"/><use transform="matrix(0.05,0,0,0.05,22.950000000000003,0)" xlink:href="#at"/><use transform="matrix(0.05,0,0,0.05,27.950000000000003,0)" xlink:href="#am"/><use transform="matrix(0.05,0,0,0.05,31.900000000000002,0)" xlink:href="#aO"/><use transform="matrix(0.05,0,0,0.05,36.900000000000006,0)" xlink:href="#am"/><use transform="matrix(0.05,0,0,0.05,40.85000000000001,0)" xlink:href="#aw"/><use transform="matrix(0.05,0,0,0.05,49.85000000000001,0)" xlink:href="#az"/><use transform="matrix(0.05,0,0,0.05,59.85,0)" xlink:href="#at"/><use transform="matrix(0.05,0,0,0.05,64.85000000000001,0)" xlink:href="#am"/><use transform="matrix(0.05,0,0,0.05,68.80000000000001,0)" xlink:href="#as"/><use transform="matrix(0.05,0,0,0.05,78.80000000000001,0)" xlink:href="#ao"/></g><g id="C"><use transform="matrix(0.05,0,0,0.05,0,0)" xlink:href="#aL"/><use transform="matrix(0.05,0,0,0.05,12,0)" xlink:href="#ai"/><use transform="matrix(0.05,0,0,0.05,21,0)" xlink:href="#am"/><use transform="matrix(0.05,0,0,0.05,24.95,0)" xlink:href="#an"/><use transform="matrix(0.05,0,0,0.05,34.95,0)" xlink:href="#ao"/></g><path d="M143 0L79-87 56-68V0H24v-261h32v163l83-92h37l-77 82L181 0h-38" id="aQ"/><g id="D"><use transform="matrix(0.05,0,0,0.05,0,0)" xlink:href="#ax"/><use transform="matrix(0.05,0,0,0.05,12.950000000000001,0)" xlink:href="#ay"/><use transform="matrix(0.05,0,0,0.05,22.950000000000003,0)" xlink:href="#aj"/><use transform="matrix(0.05,0,0,0.05,32.95,0)" xlink:href="#aw"/><use transform="matrix(0.05,0,0,0.05,41.95,0)" xlink:href="#aQ"/></g><g id="E"><use transform="matrix(0.05,0,0,0.05,0,0)" xlink:href="#ah"/><use transform="matrix(0.05,0,0,0.05,12.950000000000001,0)" xlink:href="#ai"/><use transform="matrix(0.05,0,0,0.05,21.950000000000003,0)" xlink:href="#aj"/><use transform="matrix(0.05,0,0,0.05,31.950000000000003,0)" xlink:href="#ak"/></g><g id="F"><use transform="matrix(0.05,0,0,0.05,0,0)" xlink:href="#ax"/><use transform="matrix(0.05,0,0,0.05,12.950000000000001,0)" xlink:href="#ak"/><use transform="matrix(0.05,0,0,0.05,18.900000000000002,0)" xlink:href="#aj"/><use transform="matrix(0.05,0,0,0.05,28.900000000000002,0)" xlink:href="#aD"/><use transform="matrix(0.05,0,0,0.05,38.900000000000006,0)" xlink:href="#aj"/><use transform="matrix(0.05,0,0,0.05,48.900000000000006,0)" xlink:href="#ao"/><use transform="matrix(0.05,0,0,0.05,58.900000000000006,0)" xlink:href="#at"/><use transform="matrix(0.05,0,0,0.05,63.900000000000006,0)" xlink:href="#am"/><use transform="matrix(0.05,0,0,0.05,67.85000000000001,0)" xlink:href="#az"/><use transform="matrix(0.05,0,0,0.05,77.85000000000001,0)" xlink:href="#aA"/><use transform="matrix(0.05,0,0,0.05,81.80000000000001,0)" xlink:href="#ai"/></g><path d="M115-194c53 0 69 39 70 98 0 66-23 100-70 100C84 3 66-7 56-30L54 0H23l1-261h32v101c10-23 28-34 59-34zm-8 174c40 0 45-34 45-75 0-40-5-75-45-74-42 0-51 32-51 76 0 43 10 73 51 73" id="aR"/><g id="G"><use transform="matrix(0.05,0,0,0.05,0,0)" xlink:href="#ax"/><use transform="matrix(0.05,0,0,0.05,12.950000000000001,0)" xlink:href="#aA"/><use transform="matrix(0.05,0,0,0.05,16.900000000000002,0)" xlink:href="#ap"/><use transform="matrix(0.05,0,0,0.05,26.900000000000002,0)" xlink:href="#aR"/></g><g id="H"><use transform="matrix(0.05,0,0,0.05,0,0)" xlink:href="#ar"/><use transform="matrix(0.05,0,0,0.05,10,0)" xlink:href="#aj"/><use transform="matrix(0.05,0,0,0.05,20,0)" xlink:href="#az"/><use transform="matrix(0.05,0,0,0.05,30,0)" xlink:href="#aF"/><use transform="matrix(0.05,0,0,0.05,39,0)" xlink:href="#aj"/></g><g id="I"><use transform="matrix(0.05,0,0,0.05,0,0)" xlink:href="#aB"/><use transform="matrix(0.05,0,0,0.05,12.950000000000001,0)" xlink:href="#aj"/><use transform="matrix(0.05,0,0,0.05,22.950000000000003,0)" xlink:href="#aA"/><use transform="matrix(0.05,0,0,0.05,26.900000000000002,0)" xlink:href="#aj"/><use transform="matrix(0.05,0,0,0.05,36.900000000000006,0)" xlink:href="#at"/><use transform="matrix(0.05,0,0,0.05,41.900000000000006,0)" xlink:href="#aj"/></g><g id="J"><use transform="matrix(0.05,0,0,0.05,0,0)" xlink:href="#ax"/><use transform="matrix(0.05,0,0,0.05,12.950000000000001,0)" xlink:href="#ak"/><use transform="matrix(0.05,0,0,0.05,18.900000000000002,0)" xlink:href="#aj"/><use transform="matrix(0.05,0,0,0.05,28.900000000000002,0)" xlink:href="#az"/><use transform="matrix(0.05,0,0,0.05,38.900000000000006,0)" xlink:href="#at"/><use transform="matrix(0.05,0,0,0.05,43.900000000000006,0)" xlink:href="#aj"/></g><g id="K"><use transform="matrix(0.05,0,0,0.05,0,0)" xlink:href="#ax"/><use transform="matrix(0.05,0,0,0.05,12.950000000000001,0)" xlink:href="#aA"/><use transform="matrix(0.05,0,0,0.05,16.900000000000002,0)" xlink:href="#ap"/><use transform="matrix(0.05,0,0,0.05,26.900000000000002,0)" xlink:href="#aR"/></g><g id="L"><use transform="matrix(0.05,0,0,0.05,0,0)" xlink:href="#ax"/><use transform="matrix(0.05,0,0,0.05,12.950000000000001,0)" xlink:href="#as"/><use transform="matrix(0.05,0,0,0.05,22.950000000000003,0)" xlink:href="#ao"/><use transform="matrix(0.05,0,0,0.05,32.95,0)" xlink:href="#ao"/><use transform="matrix(0.05,0,0,0.05,42.95,0)" xlink:href="#aj"/><use transform="matrix(0.05,0,0,0.05,52.95,0)" xlink:href="#aw"/><use transform="matrix(0.05,0,0,0.05,61.95,0)" xlink:href="#at"/></g><g id="M"><use transform="matrix(0.05,0,0,0.05,0,0)" xlink:href="#at"/><use transform="matrix(0.05,0,0,0.05,5,0)" xlink:href="#as"/></g><g id="N"><use transform="matrix(0.05,0,0,0.05,0,0)" xlink:href="#av"/><use transform="matrix(0.05,0,0,0.05,11,0)" xlink:href="#as"/><use transform="matrix(0.05,0,0,0.05,21,0)" xlink:href="#am"/><use transform="matrix(0.05,0,0,0.05,24.95,0)" xlink:href="#aw"/><use transform="matrix(0.05,0,0,0.05,33.95,0)" xlink:href="#aj"/></g><g id="O"><use transform="matrix(0.05,0,0,0.05,0,0)" xlink:href="#al"/><use transform="matrix(0.05,0,0,0.05,12,0)" xlink:href="#aj"/><use transform="matrix(0.05,0,0,0.05,22,0)" xlink:href="#ak"/><use transform="matrix(0.05,0,0,0.05,27.950000000000003,0)" xlink:href="#aF"/><use transform="matrix(0.05,0,0,0.05,36.95,0)" xlink:href="#aj"/><use transform="matrix(0.05,0,0,0.05,46.95,0)" xlink:href="#ak"/></g><g id="P"><use transform="matrix(0.05,0,0,0.05,0,0)" xlink:href="#aB"/><use transform="matrix(0.05,0,0,0.05,12.950000000000001,0)" xlink:href="#am"/><use transform="matrix(0.05,0,0,0.05,16.900000000000002,0)" xlink:href="#ai"/><use transform="matrix(0.05,0,0,0.05,25.900000000000002,0)" xlink:href="#aw"/><use transform="matrix(0.05,0,0,0.05,34.900000000000006,0)" xlink:href="#as"/><use transform="matrix(0.05,0,0,0.05,44.900000000000006,0)" xlink:href="#ao"/><use transform="matrix(0.05,0,0,0.05,54.900000000000006,0)" xlink:href="#ao"/><use transform="matrix(0.05,0,0,0.05,64.9,0)" xlink:href="#aj"/><use transform="matrix(0.05,0,0,0.05,74.9,0)" xlink:href="#aw"/><use transform="matrix(0.05,0,0,0.05,83.9,0)" xlink:href="#at"/></g><g id="Q"><use transform="matrix(0.05,0,0,0.05,0,0)" xlink:href="#aO"/><use transform="matrix(0.05,0,0,0.05,5,0)" xlink:href="#ak"/><use transform="matrix(0.05,0,0,0.05,10.95,0)" xlink:href="#as"/><use transform="matrix(0.05,0,0,0.05,20.95,0)" xlink:href="#aK"/></g><g id="R"><use transform="matrix(0.05,0,0,0.05,0,0)" xlink:href="#ax"/><use transform="matrix(0.05,0,0,0.05,12.950000000000001,0)" xlink:href="#ay"/><use transform="matrix(0.05,0,0,0.05,22.950000000000003,0)" xlink:href="#az"/><use transform="matrix(0.05,0,0,0.05,32.95,0)" xlink:href="#ao"/><use transform="matrix(0.05,0,0,0.05,42.95,0)" xlink:href="#an"/><use transform="matrix(0.05,0,0,0.05,52.95,0)" xlink:href="#aj"/></g><path d="M30-248c87 1 191-15 191 75 0 78-77 80-158 76V0H30v-248zm33 125c57 0 124 11 124-50 0-59-68-47-124-48v98" id="aS"/><g id="S"><use transform="matrix(0.05,0,0,0.05,0,0)" xlink:href="#aS"/><use transform="matrix(0.05,0,0,0.05,12,0)" xlink:href="#ak"/><use transform="matrix(0.05,0,0,0.05,17.95,0)" xlink:href="#as"/><use transform="matrix(0.05,0,0,0.05,27.950000000000003,0)" xlink:href="#aO"/><use transform="matrix(0.05,0,0,0.05,32.95,0)" xlink:href="#am"/><use transform="matrix(0.05,0,0,0.05,36.900000000000006,0)" xlink:href="#aA"/><use transform="matrix(0.05,0,0,0.05,40.85000000000001,0)" xlink:href="#aj"/></g><g id="T"><use transform="matrix(0.05,0,0,0.05,0,0)" xlink:href="#al"/><use transform="matrix(0.05,0,0,0.05,12,0)" xlink:href="#aj"/><use transform="matrix(0.05,0,0,0.05,22,0)" xlink:href="#at"/><use transform="matrix(0.05,0,0,0.05,27,0)" xlink:href="#at"/><use transform="matrix(0.05,0,0,0.05,32,0)" xlink:href="#am"/><use transform="matrix(0.05,0,0,0.05,35.95,0)" xlink:href="#ao"/><use transform="matrix(0.05,0,0,0.05,45.95,0)" xlink:href="#an"/><use transform="matrix(0.05,0,0,0.05,55.95,0)" xlink:href="#ai"/></g><g id="U"><use transform="matrix(0.05,0,0,0.05,0,0)" xlink:href="#aS"/><use transform="matrix(0.05,0,0,0.05,12,0)" xlink:href="#ak"/><use transform="matrix(0.05,0,0,0.05,17.95,0)" xlink:href="#as"/><use transform="matrix(0.05,0,0,0.05,27.950000000000003,0)" xlink:href="#aO"/><use transform="matrix(0.05,0,0,0.05,32.95,0)" xlink:href="#am"/><use transform="matrix(0.05,0,0,0.05,36.900000000000006,0)" xlink:href="#aA"/><use transform="matrix(0.05,0,0,0.05,40.85000000000001,0)" xlink:href="#aj"/></g><g id="V"><use transform="matrix(0.05,0,0,0.05,0,0)" xlink:href="#aS"/><use transform="matrix(0.05,0,0,0.05,12,0)" xlink:href="#am"/><use transform="matrix(0.05,0,0,0.05,15.949999999999998,0)" xlink:href="#aw"/><use transform="matrix(0.05,0,0,0.05,24.95,0)" xlink:href="#ap"/><use transform="matrix(0.05,0,0,0.05,34.95,0)" xlink:href="#ak"/><use transform="matrix(0.05,0,0,0.05,40.900000000000006,0)" xlink:href="#aj"/></g><g id="W"><use transform="matrix(0.05,0,0,0.05,0,0)" xlink:href="#ah"/><use transform="matrix(0.05,0,0,0.05,12.950000000000001,0)" xlink:href="#ai"/><use transform="matrix(0.05,0,0,0.05,21.950000000000003,0)" xlink:href="#aj"/><use transform="matrix(0.05,0,0,0.05,31.950000000000003,0)" xlink:href="#ak"/><use transform="matrix(0.05,0,0,0.05,37.900000000000006,0)" xlink:href="#ao"/><use transform="matrix(0.05,0,0,0.05,47.900000000000006,0)" xlink:href="#az"/><use transform="matrix(0.05,0,0,0.05,57.900000000000006,0)" xlink:href="#aK"/><use transform="matrix(0.05,0,0,0.05,72.85000000000001,0)" xlink:href="#aj"/></g><g id="X"><use transform="matrix(0.05,0,0,0.05,0,0)" xlink:href="#al"/><use transform="matrix(0.05,0,0,0.05,12,0)" xlink:href="#aj"/><use transform="matrix(0.05,0,0,0.05,22,0)" xlink:href="#ao"/><use transform="matrix(0.05,0,0,0.05,32,0)" xlink:href="#aD"/></g><path d="M63-220v92h138v28H63V0H30v-248h175v28H63" id="aT"/><g id="Y"><use transform="matrix(0.05,0,0,0.05,0,0)" xlink:href="#aT"/><use transform="matrix(0.05,0,0,0.05,10.950000000000001,0)" xlink:href="#ak"/><use transform="matrix(0.05,0,0,0.05,16.900000000000002,0)" xlink:href="#am"/><use transform="matrix(0.05,0,0,0.05,20.85,0)" xlink:href="#aj"/><use transform="matrix(0.05,0,0,0.05,30.85,0)" xlink:href="#ao"/><use transform="matrix(0.05,0,0,0.05,40.85,0)" xlink:href="#aD"/></g><path d="M145-31C134-9 116 4 85 4 32 4 16-35 15-94c0-59 17-99 70-100 32-1 48 14 60 33 0-11-1-24 2-32h30l-1 268h-32zM93-21c41 0 51-33 51-76s-8-73-50-73c-40 0-46 35-46 75s5 74 45 74" id="aU"/><g id="Z"><use transform="matrix(0.05,0,0,0.05,0,0)" xlink:href="#aE"/><use transform="matrix(0.05,0,0,0.05,12.950000000000001,0)" xlink:href="#aj"/><use transform="matrix(0.05,0,0,0.05,22.950000000000003,0)" xlink:href="#aU"/><use transform="matrix(0.05,0,0,0.05,32.95,0)" xlink:href="#ap"/><use transform="matrix(0.05,0,0,0.05,42.95,0)" xlink:href="#aj"/><use transform="matrix(0.05,0,0,0.05,52.95,0)" xlink:href="#ai"/><use transform="matrix(0.05,0,0,0.05,61.95,0)" xlink:href="#at"/></g><g id="aa"><use transform="matrix(0.05,0,0,0.05,0,0)" xlink:href="#aL"/><use transform="matrix(0.05,0,0,0.05,12,0)" xlink:href="#aw"/><use transform="matrix(0.05,0,0,0.05,21,0)" xlink:href="#aw"/><use transform="matrix(0.05,0,0,0.05,30,0)" xlink:href="#aj"/><use transform="matrix(0.05,0,0,0.05,40,0)" xlink:href="#aq"/><use transform="matrix(0.05,0,0,0.05,50,0)" xlink:href="#at"/></g><g id="ab"><use transform="matrix(0.05,0,0,0.05,0,0)" xlink:href="#aB"/><use transform="matrix(0.05,0,0,0.05,12.950000000000001,0)" xlink:href="#aj"/><use transform="matrix(0.05,0,0,0.05,22.950000000000003,0)" xlink:href="#aw"/><use transform="matrix(0.05,0,0,0.05,31.950000000000003,0)" xlink:href="#aA"/><use transform="matrix(0.05,0,0,0.05,35.900000000000006,0)" xlink:href="#am"/><use transform="matrix(0.05,0,0,0.05,39.85000000000001,0)" xlink:href="#ao"/><use transform="matrix(0.05,0,0,0.05,49.85000000000001,0)" xlink:href="#aj"/></g></defs></g></svg>